<svg width="59" height="51" viewBox="4.5 -0.5 59 51" fill="none" xmlns="http://www.w3.org/2000/svg">
    <rect x="16.5" y="46.5" width="43" height="47" transform="rotate(-90 16.5 46.5)" stroke="black" shape-rendering="crispEdges"/>
    <line y1="-0.5" x2="3.90692" y2="-0.5" transform="matrix(-0.737154 -0.675725 0.737154 -0.675725 19.84 46.12)" stroke="black"/>
    <line y1="-0.5" x2="10.4184" y2="-0.5" transform="matrix(-0.737154 -0.675725 0.737154 -0.675725 24.64 46.12)" stroke="black"/>
    <line y1="-0.5" x2="16.93" y2="-0.5" transform="matrix(-0.737154 -0.675725 0.737154 -0.675725 29.44 46.12)" stroke="black"/>
    <line y1="-0.5" x2="23.4415" y2="-0.5" transform="matrix(-0.737154 -0.675725 0.737154 -0.675725 34.24 46.12)" stroke="black"/>
    <line y1="-0.5" x2="29.953" y2="-0.5" transform="matrix(-0.737154 -0.675725 0.737154 -0.675725 39.04 46.12)" stroke="black"/>
    <line y1="-0.5" x2="36.4646" y2="-0.5" transform="matrix(-0.737154 -0.675725 0.737154 -0.675725 43.84 46.12)" stroke="black"/>
    <line y1="-0.5" x2="42.9761" y2="-0.5" transform="matrix(-0.737154 -0.675725 0.737154 -0.675725 48.64 46.12)" stroke="black"/>
    <line y1="-0.5" x2="49.4876" y2="-0.5" transform="matrix(-0.737154 -0.675725 0.737154 -0.675725 53.44 46.12)" stroke="black"/>
    <line y1="-0.5" x2="55.9991" y2="-0.5" transform="matrix(-0.737154 -0.675725 0.737154 -0.675725 58.24 46.12)" stroke="black"/>
    <line y1="-0.5" x2="62.5107" y2="-0.5" transform="matrix(-0.737154 -0.675725 0.737154 -0.675725 63.04 46.12)" stroke="black"/>
    <line y1="-0.5" x2="58.6038" y2="-0.5" transform="matrix(-0.737154 -0.675725 0.737154 -0.675725 64 42.6)" stroke="black"/>
    <line y1="-0.5" x2="52.0922" y2="-0.5" transform="matrix(-0.737154 -0.675725 0.737154 -0.675725 64 38.2)" stroke="black"/>
    <line y1="-0.5" x2="45.5807" y2="-0.5" transform="matrix(-0.737154 -0.675725 0.737154 -0.675725 64 33.8)" stroke="black"/>
    <line y1="-0.5" x2="39.0692" y2="-0.5" transform="matrix(-0.737154 -0.675725 0.737154 -0.675725 64 29.4)" stroke="black"/>
    <line y1="-0.5" x2="32.5576" y2="-0.5" transform="matrix(-0.737154 -0.675725 0.737154 -0.675725 64 25)" stroke="black"/>
    <line y1="-0.5" x2="26.0461" y2="-0.5" transform="matrix(-0.737154 -0.675725 0.737154 -0.675725 64 20.6)" stroke="black"/>
    <line y1="-0.5" x2="19.5346" y2="-0.5" transform="matrix(-0.737154 -0.675725 0.737154 -0.675725 64 16.2)" stroke="black"/>
    <line y1="-0.5" x2="13.0231" y2="-0.5" transform="matrix(-0.737154 -0.675725 0.737154 -0.675725 64 11.8)" stroke="black"/>
    <line y1="-0.5" x2="6.51153" y2="-0.5" transform="matrix(-0.737154 -0.675725 0.737154 -0.675725 64 7.4)" stroke="black"/>
    <rect x="51.5" y="46.5" width="47" height="43" transform="rotate(180 51.5 46.5)" stroke="black" shape-rendering="crispEdges"/>
    <line y1="-0.5" x2="3.90692" y2="-0.5" transform="matrix(-0.737154 0.675725 -0.737154 -0.675725 51.04 43.48)" stroke="black"/>
    <line y1="-0.5" x2="10.4184" y2="-0.5" transform="matrix(-0.737154 0.675725 -0.737154 -0.675725 51.04 39.08)" stroke="black"/>
    <line y1="-0.5" x2="16.93" y2="-0.5" transform="matrix(-0.737154 0.675725 -0.737154 -0.675725 51.04 34.68)" stroke="black"/>
    <line y1="-0.5" x2="23.4415" y2="-0.5" transform="matrix(-0.737154 0.675725 -0.737154 -0.675725 51.04 30.28)" stroke="black"/>
    <line y1="-0.5" x2="29.953" y2="-0.5" transform="matrix(-0.737154 0.675725 -0.737154 -0.675725 51.04 25.88)" stroke="black"/>
    <line y1="-0.5" x2="36.4646" y2="-0.5" transform="matrix(-0.737154 0.675725 -0.737154 -0.675725 51.04 21.48)" stroke="black"/>
    <line y1="-0.5" x2="42.9761" y2="-0.5" transform="matrix(-0.737154 0.675725 -0.737154 -0.675725 51.04 17.08)" stroke="black"/>
    <line y1="-0.5" x2="49.4876" y2="-0.5" transform="matrix(-0.737154 0.675725 -0.737154 -0.675725 51.04 12.68)" stroke="black"/>
    <line y1="-0.5" x2="55.9991" y2="-0.5" transform="matrix(-0.737154 0.675725 -0.737154 -0.675725 51.04 8.28)" stroke="black"/>
    <line y1="-0.5" x2="62.5107" y2="-0.5" transform="matrix(-0.737154 0.675725 -0.737154 -0.675725 51.04 3.88)" stroke="black"/>
    <line y1="-0.5" x2="58.6038" y2="-0.5" transform="matrix(-0.737154 0.675725 -0.737154 -0.675725 47.2 3)" stroke="black"/>
    <line y1="-0.5" x2="52.0922" y2="-0.5" transform="matrix(-0.737154 0.675725 -0.737154 -0.675725 42.4 3)" stroke="black"/>
    <line y1="-0.5" x2="45.5807" y2="-0.5" transform="matrix(-0.737154 0.675725 -0.737154 -0.675725 37.6 3)" stroke="black"/>
    <line y1="-0.5" x2="39.0692" y2="-0.5" transform="matrix(-0.737154 0.675725 -0.737154 -0.675725 32.8 3)" stroke="black"/>
    <line y1="-0.5" x2="32.5576" y2="-0.5" transform="matrix(-0.737154 0.675725 -0.737154 -0.675725 28 3)" stroke="black"/>
    <line y1="-0.5" x2="26.0461" y2="-0.5" transform="matrix(-0.737154 0.675725 -0.737154 -0.675725 23.2 3)" stroke="black"/>
    <line y1="-0.5" x2="19.5346" y2="-0.5" transform="matrix(-0.737154 0.675725 -0.737154 -0.675725 18.4 3)" stroke="black"/>
    <line y1="-0.5" x2="13.0231" y2="-0.5" transform="matrix(-0.737154 0.675725 -0.737154 -0.675725 13.6 3)" stroke="black"/>
    <line y1="-0.5" x2="6.51153" y2="-0.5" transform="matrix(-0.737154 0.675725 -0.737154 -0.675725 8.8 3)" stroke="black"/>
    <rect x="9" width="50" height="50" fill="black"/>
</svg>