<svg width="55" height="55" viewBox="0 0.5 54.5 54.5" fill="none" xmlns="http://www.w3.org/2000/svg">
    <rect x="54.5" y="0.5" width="49" height="49" transform="rotate(90 54.5 0.5)" stroke="black" shape-rendering="crispEdges"/>
    <line x1="51.3536" y1="0.646447" x2="54.3536" y2="3.64645" stroke="black"/>
    <line x1="46.3536" y1="0.646447" x2="54.3536" y2="8.64645" stroke="black"/>
    <line x1="41.3536" y1="0.646447" x2="54.3536" y2="13.6464" stroke="black"/>
    <line x1="36.3536" y1="0.646447" x2="54.3536" y2="18.6464" stroke="black"/>
    <line x1="31.3536" y1="0.646447" x2="54.3535" y2="23.6464" stroke="black"/>
    <line x1="26.3536" y1="0.646447" x2="54.3536" y2="28.6464" stroke="black"/>
    <line x1="21.3536" y1="0.646447" x2="54.3536" y2="33.6464" stroke="black"/>
    <line x1="16.3536" y1="0.646447" x2="54.3536" y2="38.6464" stroke="black"/>
    <line x1="11.3536" y1="0.646447" x2="54.3536" y2="43.6464" stroke="black"/>
    <line x1="6.35355" y1="0.646447" x2="54.3535" y2="48.6464" stroke="black"/>
    <line x1="5.35355" y1="4.64645" x2="50.3536" y2="49.6464" stroke="black"/>
    <line x1="5.35355" y1="9.64645" x2="45.3536" y2="49.6464" stroke="black"/>
    <line x1="5.35355" y1="14.6464" x2="40.3536" y2="49.6464" stroke="black"/>
    <line x1="5.35355" y1="19.6464" x2="35.3536" y2="49.6464" stroke="black"/>
    <line x1="5.35355" y1="24.6464" x2="30.3536" y2="49.6464" stroke="black"/>
    <line x1="5.35355" y1="29.6464" x2="25.3536" y2="49.6464" stroke="black"/>
    <line x1="5.35355" y1="34.6464" x2="20.3536" y2="49.6464" stroke="black"/>
    <line x1="5.35355" y1="39.6464" x2="15.3536" y2="49.6464" stroke="black"/>
    <line x1="5.35355" y1="44.6464" x2="10.3536" y2="49.6464" stroke="black"/>
    <rect y="5" width="50" height="50" fill="black"/>
</svg>