<svg xmlns="http://www.w3.org/2000/svg" style="display:none">
  <symbol id="youtube" viewBox="0 0 24 24">
    <path d="M23.5 6.2a3 3 0 0 0-2.1-2.1C19.5 3.5 12 3.5 12 3.5s-7.5 0-9.4.6a3 3 0 0 0-2.1 2.1C0 8.1 0 12 0 12s0 3.9.5 5.8a3 3 0 0 0 2.1 2.1c1.9.6 9.4.6 9.4.6s7.5 0 9.4-.6a3 3 0 0 0 2.1-2.1C24 15.9 24 12 24 12s0-3.9-.5-5.8zM9.8 15.5V8.5l6.3 3.5-6.3 3.5z"/>
  </symbol>

  <symbol id="github" viewBox="0 0 24 24">
    <path d="M12 0C5.4 0 0 5.4 0 12c0 5.3 3.4 9.8 8.2 11.4.6.1.8-.3.8-.6v-2c-3.3.7-4-1.6-4-1.6-.5-1.4-1.3-1.8-1.3-1.8-1.1-.7.1-.7.1-.7 1.2.1 1.8 1.2 1.8 1.2 1.1 1.8 2.8 1.3 3.5 1 .1-.8.4-1.3.8-1.6-2.7-.3-5.5-1.3-5.5-5.9 0-1.3.5-2.4 1.2-3.2-.1-.3-.5-1.5.1-3.2 0 0 1-.3 3.3 1.2a11.5 11.5 0 0 1 6 0C17 4.7 18 5 18 5c.6 1.7.2 2.9.1 3.2.8.8 1.2 1.9 1.2 3.2 0 4.6-2.8 5.6-5.5 5.9.4.4.8 1.1.8 2.2v3.3c0 .3.2.7.8.6C20.6 21.8 24 17.3 24 12 24 5.4 18.6 0 12 0z"/>
  </symbol>

  <symbol id="linkedin" viewBox="0 0 24 24">
    <path d="M20.4 2H3.6C2.7 2 2 2.7 2 3.6v16.8c0 .9.7 1.6 1.6 1.6h16.8c.9 0 1.6-.7 1.6-1.6V3.6c0-.9-.7-1.6-1.6-1.6zM8.3 18.7H5.7V9.7h2.6v9zm-1.3-10.2c-.9 0-1.6-.7-1.6-1.6s.7-1.6 1.6-1.6 1.6.7 1.6 1.6-.7 1.6-1.6 1.6zm12 10.2h-2.6v-4.7c0-1.1-.4-1.9-1.4-1.9-.8 0-1.2.5-1.4 1-.1.2-.1.5-.1.8v4.8h-2.6V9.7h2.6v1.2c.4-.6 1.1-1.4 2.6-1.4 1.9 0 3.3 1.2 3.3 3.9v5.3z"/>
  </symbol>

  <symbol id="speedyshoes" viewBox="0 0 21.803 21.803">
    <g transform="translate(21.803 0) scale(-1 1)">
      <path d="M18.374,16.605l-4.076-2.101l-1.107-1.773l-0.757-4.503l2.219,1.092l-0.375,1.494c-0.13,0.519,0.185,1.041,0.699,1.17c0.077,0.021,0.157,0.03,0.235,0.03c0.432-0.002,0.823-0.293,0.935-0.729l0.565-2.25c0.11-0.439-0.103-0.897-0.511-1.101c0,0-5.303-2.603-5.328-2.612c-0.406-0.188-0.868-0.267-1.342-0.198c-0.625,0.088-1.158,0.407-1.528,0.86c-0.029,0.027-2.565,3.15-2.565,3.15l-1.95,0.525C2.974,9.8,2.67,10.327,2.809,10.843c0.116,0.43,0.505,0.713,0.93,0.713c0.083,0,0.168-0.011,0.252-0.033l2.252-0.606c0.196-0.055,0.37-0.167,0.498-0.324L7.75,9.346l0.725,4.026l-1.27,1.01c-0.379,0.304-0.541,0.802-0.411,1.269l1.469,5.271c0.148,0.532,0.633,0.881,1.16,0.881c0.107,0,0.216-0.015,0.324-0.045c0.641-0.178,1.016-0.842,0.837-1.482L9.33,15.774l1.948-1.498l1.151,1.791c0.115,0.186,0.277,0.334,0.471,0.436l4.371,2.25c0.177,0.092,0.363,0.135,0.552,0.135c0.438,0,0.856-0.238,1.072-0.653C19.198,17.635,18.965,16.91,18.374,16.605z"/>
      <circle cx="8.602" cy="2.568" r="2.568"/>
    </g>
  </symbol>
</svg>